<svg xmlns="http://www.w3.org/2000/svg" xmlns:xlink="http://www.w3.org/1999/xlink" width="200" zoomAndPan="magnify" viewBox="0 0 150 37.5" height="50" preserveAspectRatio="xMidYMid meet" version="1.0"><defs><g/><clipPath id="666f555718"><path d="M 0.988281 0 L 149.011719 0 L 149.011719 37.007812 L 0.988281 37.007812 Z M 0.988281 0 " clip-rule="nonzero"/></clipPath></defs><g clip-path="url(#666f555718)"><path fill="#ffffff" d="M 0.988281 0 L 149.011719 0 L 149.011719 37.007812 L 0.988281 37.007812 Z M 0.988281 0 " fill-opacity="1" fill-rule="nonzero"/><path fill="#ffffff" d="M 0.988281 0 L 149.011719 0 L 149.011719 37.007812 L 0.988281 37.007812 Z M 0.988281 0 " fill-opacity="1" fill-rule="nonzero"/></g><g fill="#3b3a3e" fill-opacity="1"><g transform="translate(23.782868, 26.081535)"><g><path d="M 0.1875 -15 L 4.078125 -15 C 4.359375 -15 4.628906 -15.003906 4.890625 -15.015625 C 5.160156 -15.023438 5.4375 -15.03125 5.71875 -15.03125 C 6.15625 -15.03125 6.582031 -15.015625 7 -14.984375 C 7.425781 -14.960938 7.84375 -14.90625 8.25 -14.8125 C 9.050781 -14.613281 9.691406 -14.238281 10.171875 -13.6875 C 10.648438 -13.132812 10.890625 -12.4375 10.890625 -11.59375 C 10.890625 -10.851562 10.679688 -10.195312 10.265625 -9.625 C 9.859375 -9.0625 9.300781 -8.671875 8.59375 -8.453125 L 7.875 -8.25 L 8.609375 -8.125 C 9.628906 -7.96875 10.453125 -7.523438 11.078125 -6.796875 C 11.703125 -6.066406 12.015625 -5.175781 12.015625 -4.125 C 12.015625 -3.0625 11.703125 -2.160156 11.078125 -1.421875 C 10.453125 -0.691406 9.625 -0.238281 8.59375 -0.0625 C 8.25 -0.0078125 7.914062 0.0195312 7.59375 0.03125 C 7.269531 0.0507812 6.9375 0.0625 6.59375 0.0625 C 6.175781 0.0625 5.753906 0.0507812 5.328125 0.03125 C 4.910156 0.0078125 4.492188 0 4.078125 0 L 0.1875 0 L 0.1875 -0.390625 C 0.539062 -0.410156 0.851562 -0.507812 1.125 -0.6875 C 1.394531 -0.875 1.53125 -1.191406 1.53125 -1.640625 L 1.53125 -13.359375 C 1.53125 -13.804688 1.394531 -14.125 1.125 -14.3125 C 0.851562 -14.507812 0.539062 -14.617188 0.1875 -14.640625 Z M 3.90625 -7.875 L 3.90625 -0.375 L 4.078125 -0.375 C 4.296875 -0.382812 4.515625 -0.382812 4.734375 -0.375 C 4.960938 -0.375 5.191406 -0.375 5.421875 -0.375 C 6.648438 -0.375 7.617188 -0.679688 8.328125 -1.296875 C 9.046875 -1.910156 9.40625 -2.875 9.40625 -4.1875 C 9.40625 -4.925781 9.222656 -5.628906 8.859375 -6.296875 C 8.492188 -6.960938 7.925781 -7.421875 7.15625 -7.671875 C 6.863281 -7.773438 6.554688 -7.835938 6.234375 -7.859375 C 5.921875 -7.878906 5.609375 -7.890625 5.296875 -7.890625 C 5.097656 -7.890625 4.894531 -7.882812 4.6875 -7.875 C 4.476562 -7.875 4.273438 -7.875 4.078125 -7.875 Z M 3.90625 -14.65625 L 3.90625 -8.265625 L 4.078125 -8.265625 C 4.179688 -8.265625 4.285156 -8.265625 4.390625 -8.265625 C 4.503906 -8.265625 4.613281 -8.265625 4.71875 -8.265625 C 5.03125 -8.265625 5.375 -8.269531 5.75 -8.28125 C 6.132812 -8.300781 6.476562 -8.363281 6.78125 -8.46875 C 7.195312 -8.59375 7.523438 -8.8125 7.765625 -9.125 C 8.003906 -9.4375 8.175781 -9.785156 8.28125 -10.171875 C 8.394531 -10.554688 8.453125 -10.929688 8.453125 -11.296875 C 8.453125 -11.679688 8.394531 -12.078125 8.28125 -12.484375 C 8.175781 -12.898438 8.003906 -13.273438 7.765625 -13.609375 C 7.523438 -13.953125 7.207031 -14.207031 6.8125 -14.375 C 6.5 -14.519531 6.144531 -14.601562 5.75 -14.625 C 5.351562 -14.644531 5.003906 -14.65625 4.703125 -14.65625 Z M 3.90625 -14.65625 "/></g></g></g><g fill="#3b3a3e" fill-opacity="1"><g transform="translate(36.146948, 26.081535)"><g><path d="M 5.515625 0.234375 C 4.398438 0.234375 3.472656 -0.0078125 2.734375 -0.5 C 2.003906 -0.988281 1.457031 -1.65625 1.09375 -2.5 C 0.738281 -3.351562 0.5625 -4.316406 0.5625 -5.390625 C 0.5625 -6.472656 0.738281 -7.425781 1.09375 -8.25 C 1.457031 -9.082031 2.003906 -9.734375 2.734375 -10.203125 C 3.472656 -10.671875 4.398438 -10.90625 5.515625 -10.90625 C 7.191406 -10.90625 8.4375 -10.394531 9.25 -9.375 C 10.070312 -8.351562 10.484375 -7.023438 10.484375 -5.390625 C 10.484375 -4.316406 10.300781 -3.351562 9.9375 -2.5 C 9.582031 -1.65625 9.035156 -0.988281 8.296875 -0.5 C 7.566406 -0.0078125 6.640625 0.234375 5.515625 0.234375 Z M 3.078125 -5.390625 C 3.078125 -4.992188 3.097656 -4.5 3.140625 -3.90625 C 3.191406 -3.3125 3.296875 -2.71875 3.453125 -2.125 C 3.609375 -1.539062 3.847656 -1.050781 4.171875 -0.65625 C 4.503906 -0.257812 4.953125 -0.0625 5.515625 -0.0625 C 6.085938 -0.0625 6.535156 -0.257812 6.859375 -0.65625 C 7.179688 -1.050781 7.421875 -1.539062 7.578125 -2.125 C 7.742188 -2.71875 7.847656 -3.3125 7.890625 -3.90625 C 7.941406 -4.5 7.96875 -4.992188 7.96875 -5.390625 C 7.96875 -5.804688 7.945312 -6.300781 7.90625 -6.875 C 7.863281 -7.457031 7.757812 -8.035156 7.59375 -8.609375 C 7.4375 -9.179688 7.195312 -9.65625 6.875 -10.03125 C 6.550781 -10.414062 6.097656 -10.609375 5.515625 -10.609375 C 4.941406 -10.609375 4.492188 -10.414062 4.171875 -10.03125 C 3.847656 -9.65625 3.609375 -9.179688 3.453125 -8.609375 C 3.296875 -8.035156 3.191406 -7.457031 3.140625 -6.875 C 3.097656 -6.289062 3.078125 -5.796875 3.078125 -5.390625 Z M 3.078125 -5.390625 "/></g></g></g><g fill="#3b3a3e" fill-opacity="1"><g transform="translate(47.052344, 26.081535)"><g><path d="M -0.140625 -10.796875 C 0.335938 -10.867188 0.804688 -11.066406 1.265625 -11.390625 C 1.734375 -11.710938 2.15625 -12.09375 2.53125 -12.53125 C 2.914062 -12.976562 3.226562 -13.425781 3.46875 -13.875 L 3.46875 -10.765625 L 5.625 -10.765625 L 5.625 -10.390625 L 3.46875 -10.390625 L 3.46875 -2.15625 C 3.46875 -1.863281 3.539062 -1.578125 3.6875 -1.296875 C 3.832031 -1.015625 4.101562 -0.875 4.5 -0.875 C 4.695312 -0.875 4.882812 -0.914062 5.0625 -1 C 5.238281 -1.09375 5.394531 -1.191406 5.53125 -1.296875 L 5.75 -1.046875 C 5.414062 -0.640625 5.046875 -0.328125 4.640625 -0.109375 C 4.242188 0.0976562 3.785156 0.203125 3.265625 0.203125 C 2.554688 0.203125 2.015625 0.0078125 1.640625 -0.375 C 1.273438 -0.757812 1.09375 -1.304688 1.09375 -2.015625 L 1.09375 -10.390625 L -0.140625 -10.390625 Z M -0.140625 -10.796875 "/></g></g></g><g fill="#3b3a3e" fill-opacity="1"><g transform="translate(53.002848, 26.081535)"><g><path d="M -0.140625 -10.796875 C 0.335938 -10.867188 0.804688 -11.066406 1.265625 -11.390625 C 1.734375 -11.710938 2.15625 -12.09375 2.53125 -12.53125 C 2.914062 -12.976562 3.226562 -13.425781 3.46875 -13.875 L 3.46875 -10.765625 L 5.625 -10.765625 L 5.625 -10.390625 L 3.46875 -10.390625 L 3.46875 -2.15625 C 3.46875 -1.863281 3.539062 -1.578125 3.6875 -1.296875 C 3.832031 -1.015625 4.101562 -0.875 4.5 -0.875 C 4.695312 -0.875 4.882812 -0.914062 5.0625 -1 C 5.238281 -1.09375 5.394531 -1.191406 5.53125 -1.296875 L 5.75 -1.046875 C 5.414062 -0.640625 5.046875 -0.328125 4.640625 -0.109375 C 4.242188 0.0976562 3.785156 0.203125 3.265625 0.203125 C 2.554688 0.203125 2.015625 0.0078125 1.640625 -0.375 C 1.273438 -0.757812 1.09375 -1.304688 1.09375 -2.015625 L 1.09375 -10.390625 L -0.140625 -10.390625 Z M -0.140625 -10.796875 "/></g></g></g><g fill="#3b3a3e" fill-opacity="1"><g transform="translate(58.953353, 26.081535)"><g><path d="M 0.15625 -15.046875 L 3.65625 -16.140625 L 3.65625 -1.640625 C 3.65625 -0.828125 4.019531 -0.410156 4.75 -0.390625 L 4.75 0 L 0.15625 0 L 0.15625 -0.390625 C 0.90625 -0.410156 1.28125 -0.828125 1.28125 -1.640625 L 1.28125 -13.359375 C 1.28125 -14.160156 0.90625 -14.585938 0.15625 -14.640625 Z M 0.15625 -15.046875 "/></g></g></g><g fill="#3b3a3e" fill-opacity="1"><g transform="translate(63.861937, 26.081535)"><g><path d="M 0.578125 -5.296875 C 0.578125 -6.304688 0.757812 -7.234375 1.125 -8.078125 C 1.488281 -8.929688 2.023438 -9.613281 2.734375 -10.125 C 3.441406 -10.644531 4.320312 -10.90625 5.375 -10.90625 C 6.28125 -10.90625 7.050781 -10.695312 7.6875 -10.28125 C 8.332031 -9.875 8.820312 -9.316406 9.15625 -8.609375 C 9.5 -7.898438 9.671875 -7.109375 9.671875 -6.234375 L 9.671875 -6.15625 L 3.078125 -6.15625 L 3.078125 -5.828125 C 3.078125 -5.335938 3.140625 -4.828125 3.265625 -4.296875 C 3.390625 -3.773438 3.582031 -3.285156 3.84375 -2.828125 C 4.101562 -2.378906 4.445312 -2.007812 4.875 -1.71875 C 5.300781 -1.4375 5.820312 -1.296875 6.4375 -1.296875 C 7.007812 -1.296875 7.566406 -1.429688 8.109375 -1.703125 C 8.660156 -1.972656 9.109375 -2.335938 9.453125 -2.796875 L 9.65625 -2.65625 C 9.195312 -1.757812 8.660156 -1.050781 8.046875 -0.53125 C 7.429688 -0.0195312 6.578125 0.234375 5.484375 0.234375 C 4.421875 0.234375 3.523438 -0.0078125 2.796875 -0.5 C 2.078125 -1 1.523438 -1.671875 1.140625 -2.515625 C 0.765625 -3.359375 0.578125 -4.285156 0.578125 -5.296875 Z M 3.125 -6.6875 L 3.125 -6.53125 L 7.203125 -6.53125 L 7.203125 -6.6875 C 7.179688 -6.96875 7.132812 -7.316406 7.0625 -7.734375 C 7 -8.160156 6.894531 -8.585938 6.75 -9.015625 C 6.601562 -9.453125 6.40625 -9.816406 6.15625 -10.109375 C 5.90625 -10.410156 5.601562 -10.5625 5.25 -10.5625 C 4.882812 -10.5625 4.570312 -10.410156 4.3125 -10.109375 C 4.0625 -9.816406 3.847656 -9.457031 3.671875 -9.03125 C 3.503906 -8.613281 3.378906 -8.1875 3.296875 -7.75 C 3.210938 -7.320312 3.15625 -6.96875 3.125 -6.6875 Z M 3.125 -6.6875 "/></g></g></g><g fill="#3b3a3e" fill-opacity="1"><g transform="translate(74.142184, 26.081535)"><g><path d="M 0.484375 -1.15625 C 0.472656 -1.1875 0.460938 -1.207031 0.453125 -1.21875 C 0.441406 -1.238281 0.429688 -1.257812 0.421875 -1.28125 L 0.765625 -3.46875 L 1 -3.46875 C 1.03125 -3.050781 1.164062 -2.640625 1.40625 -2.234375 C 1.644531 -1.835938 1.945312 -1.476562 2.3125 -1.15625 C 2.6875 -0.84375 3.082031 -0.585938 3.5 -0.390625 C 3.925781 -0.203125 4.332031 -0.109375 4.71875 -0.109375 C 4.96875 -0.109375 5.238281 -0.15625 5.53125 -0.25 C 5.820312 -0.34375 6.078125 -0.5 6.296875 -0.71875 C 6.515625 -0.9375 6.625 -1.210938 6.625 -1.546875 C 6.625 -1.898438 6.515625 -2.207031 6.296875 -2.46875 C 6.078125 -2.738281 5.8125 -2.976562 5.5 -3.1875 C 5.195312 -3.394531 4.90625 -3.578125 4.625 -3.734375 C 4.457031 -3.835938 4.28125 -3.9375 4.09375 -4.03125 C 3.914062 -4.132812 3.734375 -4.242188 3.546875 -4.359375 C 3.046875 -4.648438 2.570312 -4.957031 2.125 -5.28125 C 1.675781 -5.601562 1.3125 -5.976562 1.03125 -6.40625 C 0.757812 -6.832031 0.625 -7.320312 0.625 -7.875 C 0.625 -8.613281 0.820312 -9.203125 1.21875 -9.640625 C 1.613281 -10.078125 2.125 -10.394531 2.75 -10.59375 C 3.375 -10.800781 4.015625 -10.90625 4.671875 -10.90625 C 5.296875 -10.90625 5.898438 -10.800781 6.484375 -10.59375 C 7.066406 -10.382812 7.578125 -10.066406 8.015625 -9.640625 C 8.015625 -9.640625 8.0625 -9.582031 8.15625 -9.46875 C 8.257812 -9.363281 8.320312 -9.296875 8.34375 -9.265625 L 8.34375 -7.546875 L 8.015625 -7.546875 C 7.828125 -7.960938 7.554688 -8.40625 7.203125 -8.875 C 6.847656 -9.351562 6.429688 -9.753906 5.953125 -10.078125 C 5.484375 -10.398438 5 -10.5625 4.5 -10.5625 C 4.0625 -10.5625 3.695312 -10.425781 3.40625 -10.15625 C 3.113281 -9.882812 2.96875 -9.523438 2.96875 -9.078125 C 2.96875 -8.472656 3.171875 -7.96875 3.578125 -7.5625 C 3.984375 -7.164062 4.421875 -6.828125 4.890625 -6.546875 C 5.054688 -6.441406 5.234375 -6.34375 5.421875 -6.25 C 5.609375 -6.15625 5.789062 -6.054688 5.96875 -5.953125 C 6.46875 -5.691406 6.929688 -5.410156 7.359375 -5.109375 C 7.796875 -4.816406 8.144531 -4.484375 8.40625 -4.109375 C 8.664062 -3.742188 8.796875 -3.300781 8.796875 -2.78125 C 8.796875 -2.34375 8.671875 -1.925781 8.421875 -1.53125 C 8.035156 -0.863281 7.472656 -0.398438 6.734375 -0.140625 C 5.992188 0.109375 5.25 0.234375 4.5 0.234375 C 3.78125 0.234375 3.054688 0.128906 2.328125 -0.078125 C 1.609375 -0.285156 0.992188 -0.644531 0.484375 -1.15625 Z M 0.484375 -1.15625 "/></g></g></g><g fill="#3b3a3e" fill-opacity="1"><g transform="translate(83.172132, 26.081535)"><g><path d="M 0.109375 -15.046875 L 3.609375 -16.140625 L 3.609375 -9.546875 L 3.890625 -9.796875 C 4.273438 -10.179688 4.722656 -10.460938 5.234375 -10.640625 C 5.742188 -10.816406 6.257812 -10.90625 6.78125 -10.90625 C 7.800781 -10.90625 8.65625 -10.671875 9.34375 -10.203125 C 10.039062 -9.742188 10.390625 -8.96875 10.390625 -7.875 L 10.390625 -1.640625 C 10.390625 -0.828125 10.753906 -0.410156 11.484375 -0.390625 L 11.484375 0 L 6.90625 0 L 6.90625 -0.390625 C 7.644531 -0.410156 8.015625 -0.828125 8.015625 -1.640625 L 8.015625 -7.875 C 8.015625 -8.582031 7.851562 -9.175781 7.53125 -9.65625 C 7.207031 -10.132812 6.640625 -10.375 5.828125 -10.375 C 5.378906 -10.375 4.984375 -10.25 4.640625 -10 C 4.304688 -9.757812 4.050781 -9.445312 3.875 -9.0625 C 3.695312 -8.6875 3.609375 -8.289062 3.609375 -7.875 L 3.609375 -1.640625 C 3.609375 -0.828125 3.972656 -0.410156 4.703125 -0.390625 L 4.703125 0 L 0.109375 0 L 0.109375 -0.390625 C 0.859375 -0.410156 1.234375 -0.828125 1.234375 -1.640625 L 1.234375 -13.359375 C 1.234375 -14.160156 0.859375 -14.585938 0.109375 -14.640625 Z M 0.109375 -15.046875 "/></g></g></g><g fill="#3b3a3e" fill-opacity="1"><g transform="translate(94.610069, 26.081535)"><g><path d="M 5.515625 0.234375 C 4.398438 0.234375 3.472656 -0.0078125 2.734375 -0.5 C 2.003906 -0.988281 1.457031 -1.65625 1.09375 -2.5 C 0.738281 -3.351562 0.5625 -4.316406 0.5625 -5.390625 C 0.5625 -6.472656 0.738281 -7.425781 1.09375 -8.25 C 1.457031 -9.082031 2.003906 -9.734375 2.734375 -10.203125 C 3.472656 -10.671875 4.398438 -10.90625 5.515625 -10.90625 C 7.191406 -10.90625 8.4375 -10.394531 9.25 -9.375 C 10.070312 -8.351562 10.484375 -7.023438 10.484375 -5.390625 C 10.484375 -4.316406 10.300781 -3.351562 9.9375 -2.5 C 9.582031 -1.65625 9.035156 -0.988281 8.296875 -0.5 C 7.566406 -0.0078125 6.640625 0.234375 5.515625 0.234375 Z M 3.078125 -5.390625 C 3.078125 -4.992188 3.097656 -4.5 3.140625 -3.90625 C 3.191406 -3.3125 3.296875 -2.71875 3.453125 -2.125 C 3.609375 -1.539062 3.847656 -1.050781 4.171875 -0.65625 C 4.503906 -0.257812 4.953125 -0.0625 5.515625 -0.0625 C 6.085938 -0.0625 6.535156 -0.257812 6.859375 -0.65625 C 7.179688 -1.050781 7.421875 -1.539062 7.578125 -2.125 C 7.742188 -2.71875 7.847656 -3.3125 7.890625 -3.90625 C 7.941406 -4.5 7.96875 -4.992188 7.96875 -5.390625 C 7.96875 -5.804688 7.945312 -6.300781 7.90625 -6.875 C 7.863281 -7.457031 7.757812 -8.035156 7.59375 -8.609375 C 7.4375 -9.179688 7.195312 -9.65625 6.875 -10.03125 C 6.550781 -10.414062 6.097656 -10.609375 5.515625 -10.609375 C 4.941406 -10.609375 4.492188 -10.414062 4.171875 -10.03125 C 3.847656 -9.65625 3.609375 -9.179688 3.453125 -8.609375 C 3.296875 -8.035156 3.191406 -7.457031 3.140625 -6.875 C 3.097656 -6.289062 3.078125 -5.796875 3.078125 -5.390625 Z M 3.078125 -5.390625 "/></g></g></g><g fill="#3b3a3e" fill-opacity="1"><g transform="translate(105.515466, 26.081535)"><g><path d="M 5.234375 0.234375 C 4.148438 0.234375 3.253906 -0.0078125 2.546875 -0.5 C 1.835938 -1 1.304688 -1.671875 0.953125 -2.515625 C 0.597656 -3.359375 0.421875 -4.296875 0.421875 -5.328125 C 0.421875 -7.023438 0.847656 -8.378906 1.703125 -9.390625 C 2.554688 -10.398438 3.847656 -10.90625 5.578125 -10.90625 C 6.117188 -10.90625 6.664062 -10.804688 7.21875 -10.609375 C 7.78125 -10.421875 8.25 -10.128906 8.625 -9.734375 C 9 -9.335938 9.1875 -8.847656 9.1875 -8.265625 C 9.1875 -7.953125 9.070312 -7.695312 8.84375 -7.5 C 8.613281 -7.3125 8.335938 -7.21875 8.015625 -7.21875 C 7.378906 -7.21875 6.976562 -7.550781 6.8125 -8.21875 C 6.78125 -8.320312 6.75 -8.429688 6.71875 -8.546875 C 6.6875 -8.671875 6.644531 -8.796875 6.59375 -8.921875 C 6.488281 -9.304688 6.320312 -9.671875 6.09375 -10.015625 C 5.863281 -10.359375 5.515625 -10.53125 5.046875 -10.53125 C 4.585938 -10.53125 4.210938 -10.359375 3.921875 -10.015625 C 3.640625 -9.671875 3.425781 -9.242188 3.28125 -8.734375 C 3.132812 -8.222656 3.03125 -7.707031 2.96875 -7.1875 C 2.914062 -6.675781 2.890625 -6.25 2.890625 -5.90625 C 2.890625 -5.394531 2.953125 -4.863281 3.078125 -4.3125 C 3.210938 -3.769531 3.421875 -3.257812 3.703125 -2.78125 C 3.984375 -2.3125 4.347656 -1.929688 4.796875 -1.640625 C 5.242188 -1.347656 5.785156 -1.203125 6.421875 -1.203125 C 6.921875 -1.203125 7.414062 -1.316406 7.90625 -1.546875 C 8.394531 -1.785156 8.785156 -2.117188 9.078125 -2.546875 L 9.328125 -2.390625 C 8.898438 -1.535156 8.359375 -0.882812 7.703125 -0.4375 C 7.054688 0.0078125 6.234375 0.234375 5.234375 0.234375 Z M 5.234375 0.234375 "/></g></g></g><g fill="#3b3a3e" fill-opacity="1"><g transform="translate(115.240025, 26.081535)"><g><path d="M 0.15625 -15.046875 L 3.65625 -16.140625 L 3.65625 -6.046875 L 4.21875 -6.046875 L 6.484375 -7.984375 C 6.609375 -8.097656 6.757812 -8.242188 6.9375 -8.421875 C 7.113281 -8.597656 7.269531 -8.789062 7.40625 -9 C 7.550781 -9.21875 7.625 -9.429688 7.625 -9.640625 C 7.625 -9.847656 7.5625 -10.003906 7.4375 -10.109375 C 7.3125 -10.222656 7.179688 -10.300781 7.046875 -10.34375 L 7.046875 -10.765625 L 10.765625 -10.765625 L 10.765625 -10.375 C 10.429688 -10.34375 10.050781 -10.195312 9.625 -9.9375 C 9.195312 -9.675781 8.78125 -9.378906 8.375 -9.046875 C 7.914062 -8.710938 7.476562 -8.363281 7.0625 -8 C 6.65625 -7.632812 6.332031 -7.351562 6.09375 -7.15625 L 5.96875 -7.046875 L 9.890625 -1.546875 C 10.109375 -1.253906 10.34375 -0.992188 10.59375 -0.765625 C 10.84375 -0.546875 11.164062 -0.421875 11.5625 -0.390625 L 11.5625 0 L 6.484375 0 L 6.484375 -0.390625 C 6.617188 -0.390625 6.742188 -0.421875 6.859375 -0.484375 C 6.953125 -0.535156 7.035156 -0.601562 7.109375 -0.6875 C 7.179688 -0.769531 7.21875 -0.878906 7.21875 -1.015625 C 7.21875 -1.097656 7.203125 -1.171875 7.171875 -1.234375 C 7.140625 -1.304688 7.109375 -1.375 7.078125 -1.4375 C 7.054688 -1.5 7.023438 -1.550781 6.984375 -1.59375 C 6.941406 -1.644531 6.90625 -1.703125 6.875 -1.765625 L 4.046875 -5.671875 L 3.65625 -5.671875 L 3.65625 -1.640625 C 3.65625 -0.828125 4.019531 -0.410156 4.75 -0.390625 L 4.75 0 L 0.15625 0 L 0.15625 -0.390625 C 0.90625 -0.410156 1.28125 -0.828125 1.28125 -1.640625 L 1.28125 -13.359375 C 1.28125 -14.160156 0.90625 -14.585938 0.15625 -14.640625 Z M 0.15625 -15.046875 "/></g></g></g></svg>