<svg width="24" height="39" viewBox="0 0 24 39" fill="none" xmlns="http://www.w3.org/2000/svg">
<path d="M11.9844 24.4375C9.60938 24.4375 7.52604 23.9896 5.73438 23.0938C3.94271 22.1979 2.55208 20.9479 1.5625 19.3438C0.572917 17.7292 0.078125 15.8438 0.078125 13.6875C0.078125 12.5833 0.21875 11.3906 0.5 10.1094C0.791667 8.82812 1.19271 7.5625 1.70312 6.3125C2.21354 5.05208 2.80729 3.90104 3.48438 2.85938C3.98438 2.08854 4.97396 1.5 6.45312 1.09375C7.94271 0.677083 9.79167 0.46875 12 0.46875C14.1979 0.46875 16.0365 0.677083 17.5156 1.09375C18.9948 1.5 19.9844 2.08854 20.4844 2.85938C21.1615 3.90104 21.7552 5.05208 22.2656 6.3125C22.7865 7.5625 23.1927 8.82812 23.4844 10.1094C23.776 11.3906 23.9219 12.5833 23.9219 13.6875C23.9219 15.8438 23.4219 17.7292 22.4219 19.3438C21.4323 20.9479 20.0417 22.1979 18.25 23.0938C16.4583 23.9896 14.3698 24.4375 11.9844 24.4375ZM11.9844 21.4375C13.8281 21.4375 15.4167 21.125 16.75 20.5C18.0833 19.875 19.1094 18.9844 19.8281 17.8281C20.5573 16.6719 20.9219 15.2917 20.9219 13.6875C20.9219 12.9375 20.8385 12.1354 20.6719 11.2812C20.5052 10.4167 20.2656 9.54167 19.9531 8.65625C19.651 7.76042 19.2865 6.90104 18.8594 6.07812C18.151 6.42188 17.2031 6.6875 16.0156 6.875C14.8281 7.0625 13.4896 7.15625 12 7.15625C10.4896 7.15625 9.14062 7.0625 7.95312 6.875C6.77604 6.6875 5.82812 6.42188 5.10938 6.07812C4.68229 6.90104 4.31771 7.75521 4.01562 8.64062C3.71354 9.52604 3.47917 10.401 3.3125 11.2656C3.15625 12.1198 3.07812 12.9271 3.07812 13.6875C3.07812 15.2917 3.4375 16.6719 4.15625 17.8281C4.875 18.9844 5.90104 19.875 7.23438 20.5C8.56771 21.125 10.151 21.4375 11.9844 21.4375ZM12 4.70312C13.0104 4.70312 13.9531 4.66146 14.8281 4.57812C15.7031 4.48438 16.4062 4.36979 16.9375 4.23438C17.4792 4.09896 17.75 3.95312 17.75 3.79688C17.75 3.66146 17.4792 3.52604 16.9375 3.39062C16.4062 3.25521 15.6979 3.14583 14.8125 3.0625C13.9375 2.96875 13 2.92188 12 2.92188C10.9792 2.92188 10.0312 2.96875 9.15625 3.0625C8.28125 3.14583 7.57292 3.25521 7.03125 3.39062C6.5 3.52604 6.23438 3.66146 6.23438 3.79688C6.23438 3.95312 6.5 4.09896 7.03125 4.23438C7.5625 4.36979 8.26562 4.48438 9.14062 4.57812C10.0156 4.66146 10.9688 4.70312 12 4.70312ZM11.9844 34.7656C11.5885 34.7656 11.2448 34.6146 10.9531 34.3125C10.6615 34.0208 10.5156 33.6771 10.5156 33.2812V22.6406H13.4844V33.2812C13.4844 33.6771 13.3385 34.0208 13.0469 34.3125C12.7552 34.6146 12.401 34.7656 11.9844 34.7656ZM11.9844 38.9688C8.99479 38.9583 6.65625 38.5885 4.96875 37.8594C3.29167 37.1302 2.45312 36.099 2.45312 34.7656C2.45312 33.4323 3.29167 32.401 4.96875 31.6719C6.65625 30.9427 8.99479 30.5781 11.9844 30.5781C14.974 30.5781 17.3125 30.9427 19 31.6719C20.6979 32.401 21.5469 33.4323 21.5469 34.7656C21.5469 36.099 20.7031 37.1302 19.0156 37.8594C17.3281 38.5885 14.9844 38.9583 11.9844 38.9688ZM11.9844 36.1562C13.2969 36.1562 14.4271 36.099 15.375 35.9844C16.3333 35.8698 17.0729 35.7083 17.5938 35.5C18.1146 35.2917 18.375 35.0469 18.375 34.7656C18.375 34.4948 18.1146 34.2552 17.5938 34.0469C17.0729 33.8385 16.3333 33.6719 15.375 33.5469C14.4271 33.4323 13.2969 33.375 11.9844 33.375C10.6823 33.375 9.55208 33.4323 8.59375 33.5469C7.64583 33.6719 6.91146 33.8385 6.39062 34.0469C5.88021 34.2552 5.625 34.4948 5.625 34.7656C5.625 35.0469 5.88021 35.2917 6.39062 35.5C6.91146 35.7083 7.64583 35.8698 8.59375 35.9844C9.55208 36.099 10.6823 36.1562 11.9844 36.1562Z" fill="#808080"/>
</svg>
